<svg xmlns="http://www.w3.org/2000/svg" width="1100" height="240" viewBox="0 0 1100 240">
  <defs>
    <linearGradient id="c" x1="0" y1="0" x2="1" y2="0">
      <stop offset="0" stop-color="#ffffff" stop-opacity="0.85"/>
      <stop offset="1" stop-color="#ffffff" stop-opacity="0.55"/>
    </linearGradient>
  </defs>
  <g fill="url(#c)">
    <path d="M70 170c0-26 22-48 48-48 8 0 16 2 23 6 10-18 30-30 52-30 31 0 57 22 62 52 3-1 7-1 11-1 24 0 44 20 44 44H70z"/>
    <path d="M420 190c0-22 18-40 40-40 7 0 13 2 19 4 9-16 26-27 45-27 27 0 49 19 53 45 3-1 6-1 9-1 20 0 36 16 36 36H420z"/>
    <path d="M760 175c0-25 20-45 45-45 8 0 15 2 22 5 9-17 27-28 47-28 29 0 52 21 56 49 3-1 6-1 10-1 22 0 40 18 40 40H760z"/>
  </g>
</svg>
